<svg width="288" height="360" xmlns="http://www.w3.org/2000/svg">
	<path fill="#334" d="M15 359.336h20.16v-6.12l-6.912-.216v-10.44h6.12c10.872 0 18.648-5.472 18.648-16.416 0-9.648-6.48-14.688-17.064-14.688h-20.592v6.12l4.104.216v33.48c0 1.44-.864 1.872-2.088 2.016l-2.376.216v5.832zm13.248-23.76v-17.136h4.392c7.056 0 11.304 1.152 11.304 8.568 0 6.408-4.248 8.568-10.512 8.568h-5.184zm39.192-27.576h-12.888v5.976l2.52.144c1.08.072 1.8.432 1.8 1.728v35.496c0 1.728-.792 2.16-2.088 2.304l-2.376.216v5.472h17.136v-5.76l-4.104-.216v-45.36zm44.008 45.648l-2.52-.216c-1.368-.144-1.8-.504-1.8-2.088v-28.224h-12.672v5.904l2.304.144c1.368.072 1.8.576 1.8 2.16v15.192c0 3.744-2.664 7.128-7.704 7.128-4.608 0-5.328-3.312-5.328-7.704v-22.824h-12.672v5.904l2.304.144c1.224.072 1.8.504 1.8 2.016v16.632c0 8.496 3.96 12.456 11.16 12.456 4.752 0 9.144-2.016 11.664-5.616v4.68h11.664v-5.688zm2.96-24.696l3.024.216c1.368.072 1.8.648 1.8 2.232v19.872h-.072c0 1.8-.72 2.232-2.088 2.376l-2.376.216v5.472h16.992v-5.76l-3.888-.216v-17.424c0-3.744 1.944-7.272 6.984-7.272 4.608 0 4.968 3.384 4.968 7.776v14.832c0 1.8-.72 2.232-2.088 2.376l-2.376.216v5.472h16.992v-5.76l-3.96-.216v-17.28c0-4.248 2.16-7.416 6.984-7.416 4.608 0 4.968 3.384 4.968 7.776v14.904c-.072 1.728-.792 2.16-2.088 2.304l-2.376.216v5.472h17.136v-5.76l-4.104-.216v-18.792c0-8.496-4.032-12.528-10.8-12.528-4.752 0-8.424 2.16-10.944 5.76-1.656-3.888-4.968-5.76-9.576-5.76-4.752 0-8.424 2.16-10.944 5.76v-4.68h-12.168v5.832zm61.952 28.224c3.024 1.728 9.288 3.096 14.328 3.096 11.592 0 17.424-6.768 17.424-20.808 0-11.232-5.76-17.424-14.688-17.424-3.384 0-6.696 1.152-8.712 3.024v-17.064h-12.672v5.976l2.52.144c1.224.072 1.8.504 1.8 1.728v41.328zm8.352-23.328c0-3.24 3.168-5.4 6.48-5.4 6.696 0 8.064 6.552 8.064 12.168 0 9.864-3.168 13.32-8.208 13.32-2.376 0-4.968-.72-6.336-1.44v-18.648zm26.8 8.208c0 10.728 4.752 18.216 16.992 18.216 6.768 0 11.52-3.024 12.672-4.032l-2.736-5.832c-1.728 1.224-4.824 3.168-9.072 3.168-6.12 0-8.568-3.816-8.856-8.496 8.496-.072 20.52-1.944 20.52-13.032 0-6.408-4.68-10.008-11.736-10.008-11.808 0-17.784 9.36-17.784 20.016zm8.712-3.024c.216-5.328 2.808-10.872 8.568-10.872 2.592 0 4.32 1.368 4.32 4.032 0 5.544-7.56 6.768-12.888 6.84zm29.312 12.24c0 1.8-.72 2.232-2.088 2.376l-2.376.216v5.472h19.296v-5.688l-6.264-.288v-16.704c0-4.176 2.664-7.272 6.552-7.272.792 0 1.296.072 1.944.36.576.288.72.936.72 1.8v3.312l6.696-.504v-10.728c-2.376-1.152-4.536-1.584-6.912-1.584-4.752 0-8.568 2.88-10.224 6.48v-5.4h-12.168v5.832l3.024.216c1.368.072 1.8.576 1.8 2.16v19.944z"/>
	<path fill="#6B8FF7" d="M144 288c79.529 0 144-64.471 144-144s-64.471-144-144-144-144 64.471-144 144 64.471 144 144 144z"/>
	<path fill="#000" opacity=".33" d="M132 92v112h8v32h-56v-32h8v-116c0-22.209 13.791-36 36-36h48c22.209 0 36 13.791 36 36v48c0 22.209-13.791 36-36 36h-8v8h-32v-56h32v8h4c.017-.193 0-40 0-40h-40z"/>
	<path fill="#FFF" d="M96 204v-116c0-20 12-32 32-32h48c20 0 32 12 32 32v48c0 20-12 32-32 32h-8v-32h4c2 0 4-2 4-4v-40c0-2-2-4-4-4h-40c-2 0-4 2-4 4v112h-32zm68-76h-24v48h24v-48zm-76 80v24h48v-24h-48z"/>
	<path fill="#6B8FF7" opacity=".33" d="M160 132h-20v4h20v-4zm0 12h-20v4h20v-4zm0 12h-20v4h20v-4zm0 12h-20v4h20v-4z"/>
	<path fill="#6B8FF7" opacity=".33" d="M92 212v20h4v-20h-4zm12 0v20h4v-20h-4zm12 0v20h4v-20h-4zm12 0v20h4v-20h-4z"/>
	<path fill="#6B8FF7" opacity=".33" d="M104 88c0-14 10-28 24-28.006-16 .006-28 12.017-28 28.006v116h4v-116z"/>
	<path fill="#6B8FF7" opacity=".33" d="M184 95v36c0 8-3 13-11 13h-5v-4h1c8 0 11-1 11-9v-36c0-8-5-11-10-11 0 0 14 0 14 11z"/>
</svg>