<svg width="860" height="288" xmlns="http://www.w3.org/2000/svg">
	<path fill="#334" d="M343 192.672h40.32v-12.24l-13.824-.432v-20.88h12.24c21.744 0 37.296-10.944 37.296-32.832 0-19.296-12.96-29.376-34.128-29.376h-41.184v12.24l8.208.432v66.96c0 2.88-1.728 3.744-4.176 4.032l-4.752.432v11.664zm26.496-47.52v-34.272h8.784c14.112 0 22.608 2.304 22.608 17.136 0 12.816-8.496 17.136-21.024 17.136h-10.368zm78.384-55.152h-25.776v11.952l5.04.288c2.16.144 3.6.864 3.6 3.456v70.992c0 3.456-1.584 4.32-4.176 4.608l-4.752.432v10.944h34.272v-11.52l-8.208-.432v-90.72zm88.016 91.296l-5.04-.432c-2.736-.288-3.6-1.008-3.6-4.176v-56.448h-25.344v11.808l4.608.288c2.736.144 3.6 1.152 3.6 4.32v30.384c0 7.488-5.328 14.256-15.408 14.256-9.216 0-10.656-6.624-10.656-15.408v-45.648h-25.344v11.808l4.608.288c2.448.144 3.6 1.008 3.6 4.032v33.264c0 16.992 7.92 24.912 22.32 24.912 9.504 0 18.288-4.032 23.328-11.232v9.36h23.328v-11.376zm5.92-49.392l6.048.432c2.736.144 3.6 1.296 3.6 4.464v39.744h-.144c0 3.6-1.44 4.464-4.176 4.752l-4.752.432v10.944h33.984v-11.52l-7.776-.432v-34.848c0-7.488 3.888-14.544 13.968-14.544 9.216 0 9.936 6.768 9.936 15.552v29.664c0 3.6-1.44 4.464-4.176 4.752l-4.752.432v10.944h33.984v-11.52l-7.92-.432v-34.56c0-8.496 4.32-14.832 13.968-14.832 9.216 0 9.936 6.768 9.936 15.552v29.808c-.144 3.456-1.584 4.32-4.176 4.608l-4.752.432v10.944h34.272v-11.52l-8.208-.432v-37.584c0-16.992-8.064-25.056-21.6-25.056-9.504 0-16.848 4.32-21.888 11.52-3.312-7.776-9.936-11.52-19.152-11.52-9.504 0-16.848 4.32-21.888 11.52v-9.36h-24.336v11.664zm123.904 56.448c6.048 3.456 18.576 6.192 28.656 6.192 23.184 0 34.848-13.536 34.848-41.616 0-22.464-11.52-34.848-29.376-34.848-6.768 0-13.392 2.304-17.424 6.048v-34.128h-25.344v11.952l5.04.288c2.448.144 3.6 1.008 3.6 3.456v82.656zm16.704-46.656c0-6.48 6.336-10.8 12.96-10.8 13.392 0 16.128 13.104 16.128 24.336 0 19.728-6.336 26.64-16.416 26.64-4.752 0-9.936-1.44-12.672-2.88v-37.296zm53.6 16.416c0 21.456 9.504 36.432 33.984 36.432 13.536 0 23.04-6.048 25.344-8.064l-5.472-11.664c-3.456 2.448-9.648 6.336-18.144 6.336-12.24 0-17.136-7.632-17.712-16.992 16.992-.144 41.04-3.888 41.04-26.064 0-12.816-9.36-20.016-23.472-20.016-23.616 0-35.568 18.72-35.568 40.032zm17.424-6.048c.432-10.656 5.616-21.744 17.136-21.744 5.184 0 8.64 2.736 8.64 8.064 0 11.088-15.12 13.536-25.776 13.68zm58.624 24.48c0 3.6-1.44 4.464-4.176 4.752l-4.752.432v10.944h38.592v-11.376l-12.528-.576v-33.408c0-8.352 5.328-14.544 13.104-14.544 1.584 0 2.592.144 3.888.72 1.152.576 1.44 1.872 1.44 3.6v6.624l13.392-1.008v-21.456c-4.752-2.304-9.072-3.168-13.824-3.168-9.504 0-17.136 5.76-20.448 12.96v-10.8h-24.336v11.664l6.048.432c2.736.144 3.6 1.152 3.6 4.32v39.888z"/>
	<path fill="#334" fill-rule="evenodd" d="M144 288c79.529 0 144-64.471 144-144s-64.471-144-144-144-144 64.471-144 144 64.471 144 144 144zm-48-84v-116c0-20 12-32 32-32h48c20 0 32 12 32 32v48c0 20-12 32-32 32h-8v-32h4c2 0 4-2 4-4v-40c0-2-2-4-4-4h-40c-2 0-4 2-4 4v112h-32zm68-76h-24v48h24v-48zm-76 80v24h48v-24h-48z"/>
</svg>